<svg width="137" height="43" viewBox="0 0 137 43" fill="none" xmlns="http://www.w3.org/2000/svg">
<path d="M14.6 2.936H19.912V43H14.088L5.64 14.072V43H0.328V2.936H6.408L14.6 31.032V2.936ZM31.634 11.768H38.482C42.45 11.768 44.434 13.6667 44.434 17.464V37.368C44.434 41.1227 42.45 43 38.482 43H31.634C27.7087 43 25.746 41.1227 25.746 37.368V17.464C25.746 13.6667 27.7087 11.768 31.634 11.768ZM38.738 36.536V18.232C38.738 17.464 38.61 16.952 38.354 16.696C38.098 16.44 37.586 16.312 36.818 16.312H33.298C32.53 16.312 32.018 16.44 31.762 16.696C31.5487 16.952 31.442 17.464 31.442 18.232V36.536C31.442 37.304 31.5487 37.816 31.762 38.072C32.018 38.328 32.53 38.456 33.298 38.456H36.818C37.586 38.456 38.098 38.328 38.354 38.072C38.61 37.816 38.738 37.304 38.738 36.536ZM59.5155 2.936H72.6355C76.6035 2.936 78.5875 4.81333 78.5875 8.568V21.88C78.5875 25.6347 76.6035 27.512 72.6355 27.512H65.2755V43H59.5155V2.936ZM72.8275 20.984V9.464C72.8275 8.696 72.6995 8.20533 72.4435 7.992C72.1875 7.736 71.6755 7.608 70.9075 7.608H65.2755V22.904H70.9075C71.6755 22.904 72.1875 22.776 72.4435 22.52C72.6995 22.264 72.8275 21.752 72.8275 20.984ZM83.063 5.816V0.119999H89.079V5.816H83.063ZM88.951 43H83.191V11.768H88.951V43ZM112.23 21.624H106.534V18.296C106.534 17.528 106.406 17.0373 106.15 16.824C105.894 16.568 105.382 16.44 104.614 16.44H101.862C101.094 16.44 100.582 16.568 100.326 16.824C100.07 17.0373 99.942 17.528 99.942 18.296V36.472C99.942 37.24 100.07 37.752 100.326 38.008C100.582 38.2213 101.094 38.328 101.862 38.328H104.614C105.382 38.328 105.894 38.2213 106.15 38.008C106.406 37.752 106.534 37.24 106.534 36.472V33.144H112.23V37.368C112.23 41.1227 110.225 43 106.214 43H100.134C96.166 43 94.182 41.1227 94.182 37.368V17.464C94.182 13.6667 96.166 11.768 100.134 11.768H106.214C110.225 11.768 112.23 13.6667 112.23 17.464V21.624ZM136.844 11.768L129.676 26.68L136.844 43H130.7L123.788 26.68L130.7 11.768H136.844ZM117.004 43V0.183998H122.764V43H117.004Z" fill="black"/>
</svg>
